<?xml version="1.0" encoding="UTF-8"?>
<svg xmlns="http://www.w3.org/2000/svg" width="900" height="660" viewBox="0 0 900 660" font-family="'Segoe UI', Arial, sans-serif">

  <!-- === BACKGROUND === -->
  <rect width="900" height="660" fill="#1a2035" rx="6"/>

  <!-- === HEADER BAR === -->
  <rect x="0" y="0" width="900" height="52" fill="#111827" rx="6"/>
  <rect x="0" y="26" width="900" height="26" fill="#111827"/>

  <!-- Kistler logo strip -->
  <rect x="0" y="0" width="6" height="52" fill="#0078d4" rx="3"/>
  <rect x="3" y="0" width="3" height="52" fill="#0078d4"/>

  <!-- Title text -->
  <text x="22" y="20" font-size="13" font-weight="700" fill="#60a5fa" letter-spacing="0.5">KISTLER maXYmos NC</text>
  <text x="22" y="39" font-size="10" fill="#6b7a9a">Press Controller — WinCC Unified Faceplate</text>

  <!-- Plant identifier placeholder -->
  <rect x="270" y="12" width="200" height="28" fill="#1e2d47" rx="3" stroke="#2d4070" stroke-width="1"/>
  <text x="278" y="29" font-size="11" fill="#94a3b8">{plantidentifier}</text>

  <!-- State colour badge -->
  <rect x="720" y="8" width="100" height="36" rx="4" fill="#166534" id="stateBadge"/>
  <text x="770" y="30" font-size="12" font-weight="700" fill="#4ade80" text-anchor="middle" id="stateText">RUNNING</text>

  <!-- tecUnit indicator -->
  <text x="840" y="24" font-size="10" fill="#6b7a9a">Unit #</text>
  <rect x="860" y="10" width="30" height="32" rx="3" fill="#0f172a" stroke="#2d4070" stroke-width="1"/>
  <text x="875" y="30" font-size="13" font-weight="700" fill="#38bdf8" text-anchor="middle">0</text>

  <!-- ============================================================ -->
  <!-- LEFT PANEL — STATUS LEDs                                      -->
  <!-- ============================================================ -->
  <rect x="8" y="58" width="178" height="298" fill="#111827" rx="4" stroke="#1e3a5f" stroke-width="1"/>
  <text x="97" y="74" font-size="10" font-weight="700" fill="#60a5fa" text-anchor="middle" letter-spacing="1">STATUS</text>
  <line x1="16" y1="78" x2="178" y2="78" stroke="#1e3a5f" stroke-width="1"/>

  <!-- LED macro helper: circle + label pairs (receive.status bits) -->
  <!-- Bit 0: Ready -->
  <circle cx="30" cy="98" r="8" fill="#4ade80" id="led_ready"/>
  <text x="45" y="102" font-size="11" fill="#e2e8f0">Ready</text>
  <text x="163" y="102" font-size="9" fill="#4b5680" text-anchor="end">rx.sts.0</text>

  <!-- Bit 1: OK Total -->
  <circle cx="30" cy="120" r="8" fill="#4ade80" id="led_okTotal"/>
  <text x="45" y="124" font-size="11" fill="#e2e8f0">OK Total</text>
  <text x="163" y="124" font-size="9" fill="#4b5680" text-anchor="end">rx.sts.1</text>

  <!-- Bit 2: NOK Total -->
  <circle cx="30" cy="142" r="8" fill="#374151" id="led_nokTotal"/>
  <text x="45" y="146" font-size="11" fill="#e2e8f0">NOK Total</text>
  <text x="163" y="146" font-size="9" fill="#4b5680" text-anchor="end">rx.sts.2</text>

  <!-- Bit 3: Drive Enabled -->
  <circle cx="30" cy="164" r="8" fill="#38bdf8" id="led_driveEnabled"/>
  <text x="45" y="168" font-size="11" fill="#e2e8f0">Drive Enabled</text>
  <text x="163" y="168" font-size="9" fill="#4b5680" text-anchor="end">rx.sts.3</text>

  <!-- Bit 4: Home Pos Reached -->
  <circle cx="30" cy="186" r="8" fill="#374151" id="led_homePos"/>
  <text x="45" y="190" font-size="11" fill="#e2e8f0">At Home Pos</text>
  <text x="163" y="190" font-size="9" fill="#4b5680" text-anchor="end">rx.sts.4</text>

  <!-- Bit 5: Ref Pos Reached -->
  <circle cx="30" cy="208" r="8" fill="#374151" id="led_refPos"/>
  <text x="45" y="212" font-size="11" fill="#e2e8f0">At Reference</text>
  <text x="163" y="212" font-size="9" fill="#4b5680" text-anchor="end">rx.sts.5</text>

  <!-- Bit 6: Standstill -->
  <circle cx="30" cy="230" r="8" fill="#38bdf8" id="led_standstill"/>
  <text x="45" y="234" font-size="11" fill="#e2e8f0">Standstill</text>
  <text x="163" y="234" font-size="9" fill="#4b5680" text-anchor="end">rx.sts.6</text>

  <!-- Bit 7: Sequence Running -->
  <circle cx="30" cy="252" r="8" fill="#facc15" id="led_seqRunning"/>
  <text x="45" y="256" font-size="11" fill="#e2e8f0">Seq Running</text>
  <text x="163" y="256" font-size="9" fill="#4b5680" text-anchor="end">rx.sts.7</text>

  <!-- Bit 8: Sequence Stopped -->
  <circle cx="30" cy="274" r="8" fill="#374151" id="led_seqStopped"/>
  <text x="45" y="278" font-size="11" fill="#e2e8f0">Seq Stopped</text>
  <text x="163" y="278" font-size="9" fill="#4b5680" text-anchor="end">rx.sts.8</text>

  <!-- Bit 9: Sequence End -->
  <circle cx="30" cy="296" r="8" fill="#4ade80" id="led_seqEnd"/>
  <text x="45" y="300" font-size="11" fill="#e2e8f0">Seq End</text>
  <text x="163" y="300" font-size="9" fill="#4b5680" text-anchor="end">rx.sts.9</text>

  <!-- Bit 10: Wait Continue -->
  <circle cx="30" cy="318" r="8" fill="#374151" id="led_waitCont"/>
  <text x="45" y="322" font-size="11" fill="#e2e8f0">Wait Continue</text>
  <text x="163" y="322" font-size="9" fill="#4b5680" text-anchor="end">rx.sts.10</text>

  <!-- SafetyOK (state.x2) -->
  <circle cx="30" cy="340" r="8" fill="#4ade80" id="led_safetyOK"/>
  <text x="45" y="344" font-size="11" fill="#e2e8f0">Safety OK</text>
  <text x="163" y="344" font-size="9" fill="#4b5680" text-anchor="end">state.x2</text>

  <!-- ============================================================ -->
  <!-- LEFT PANEL BOTTOM — ALARMS                                    -->
  <!-- ============================================================ -->
  <rect x="8" y="362" width="178" height="204" fill="#111827" rx="4" stroke="#3b1e1e" stroke-width="1"/>
  <text x="97" y="378" font-size="10" font-weight="700" fill="#f87171" text-anchor="middle" letter-spacing="1">ALARMS</text>
  <line x1="16" y1="382" x2="178" y2="382" stroke="#3b1e1e" stroke-width="1"/>

  <!-- alarm DWord bits -->
  <!-- Bit 1: hardwareNOK -->
  <circle cx="30" cy="400" r="8" fill="#374151" id="led_hwNOK"/>
  <text x="45" y="404" font-size="11" fill="#e2e8f0">Hardware NOK</text>
  <text x="163" y="404" font-size="9" fill="#4b5680" text-anchor="end">alm.x1</text>

  <!-- Bit 2: driveEnabledNOK -->
  <circle cx="30" cy="422" r="8" fill="#374151" id="led_driveNOK"/>
  <text x="45" y="426" font-size="11" fill="#e2e8f0">Drive Enable NOK</text>
  <text x="163" y="426" font-size="9" fill="#4b5680" text-anchor="end">alm.x2</text>

  <!-- Bit 12: safetyNOK -->
  <circle cx="30" cy="444" r="8" fill="#374151" id="led_safetyNOK"/>
  <text x="45" y="448" font-size="11" fill="#e2e8f0">Safety NOK</text>
  <text x="163" y="448" font-size="9" fill="#4b5680" text-anchor="end">alm.x12</text>

  <!-- Bit 15: serialnumbermismatch -->
  <circle cx="30" cy="466" r="8" fill="#374151" id="led_serialMismatch"/>
  <text x="45" y="470" font-size="11" fill="#e2e8f0">Serial Mismatch</text>
  <text x="163" y="470" font-size="9" fill="#4b5680" text-anchor="end">alm.x15</text>

  <!-- Bit 16: transmissionFault -->
  <circle cx="30" cy="488" r="8" fill="#374151" id="led_txFault"/>
  <text x="45" y="492" font-size="11" fill="#e2e8f0">TX Fault</text>
  <text x="163" y="492" font-size="9" fill="#4b5680" text-anchor="end">alm.x16</text>

  <!-- Bit 17: remoteControlNotActive -->
  <circle cx="30" cy="510" r="8" fill="#facc15" id="led_remoteInactive"/>
  <text x="45" y="514" font-size="11" fill="#e2e8f0">Remote Inactive</text>
  <text x="163" y="514" font-size="9" fill="#4b5680" text-anchor="end">alm.x17</text>

  <!-- ============================================================ -->
  <!-- CENTRE — F-D CURVE PLOT                                       -->
  <!-- ============================================================ -->
  <rect x="194" y="58" width="410" height="290" fill="#0d1117" rx="4" stroke="#1e3a5f" stroke-width="1"/>
  <text x="290" y="74" font-size="10" font-weight="700" fill="#60a5fa" letter-spacing="1">FORCE–DISPLACEMENT CURVE</text>
  <text x="595" y="74" font-size="9" fill="#4b5680" text-anchor="end">rx.PVcurrentValueX / Y</text>
  <line x1="202" y1="78" x2="596" y2="78" stroke="#1e3a5f" stroke-width="1"/>

  <!-- Grid lines -->
  <g stroke="#1e2d40" stroke-width="0.5">
    <line x1="215" y1="100" x2="590" y2="100"/>
    <line x1="215" y1="140" x2="590" y2="140"/>
    <line x1="215" y1="180" x2="590" y2="180"/>
    <line x1="215" y1="220" x2="590" y2="220"/>
    <line x1="215" y1="260" x2="590" y2="260"/>
    <line x1="270" y1="88" x2="270" y2="300"/>
    <line x1="340" y1="88" x2="340" y2="300"/>
    <line x1="410" y1="88" x2="410" y2="300"/>
    <line x1="480" y1="88" x2="480" y2="300"/>
    <line x1="550" y1="88" x2="550" y2="300"/>
  </g>

  <!-- Axes -->
  <line x1="215" y1="300" x2="590" y2="300" stroke="#2d4070" stroke-width="1.5"/>
  <line x1="215" y1="88" x2="215" y2="300" stroke="#2d4070" stroke-width="1.5"/>

  <!-- Axis labels -->
  <text x="400" y="322" font-size="10" fill="#6b7a9a" text-anchor="middle">Displacement X  [mm]</text>
  <text x="200" y="195" font-size="10" fill="#6b7a9a" text-anchor="middle" transform="rotate(-90 200 195)">Force Y  [N]</text>

  <!-- Axis bounds from UDT -->
  <text x="215" y="310" font-size="8" fill="#4b5680">{Xmin}</text>
  <text x="585" y="310" font-size="8" fill="#4b5680" text-anchor="end">{Xmax}</text>
  <text x="206" y="298" font-size="8" fill="#4b5680" text-anchor="end">{Ymin}</text>
  <text x="206" y="93" font-size="8" fill="#4b5680" text-anchor="end">{Ymax}</text>

  <!-- Example curve (polyline — in WinCC Unified: bind to PVcurrentValueX/Y) -->
  <polyline points="215,295 245,288 275,272 310,248 350,210 395,168 440,140 480,118 520,100 560,94 580,91"
            fill="none" stroke="#0078d4" stroke-width="2" stroke-linejoin="round"/>

  <!-- Live cursor dot (current position) -->
  <circle cx="580" cy="91" r="5" fill="#0078d4"/>
  <circle cx="580" cy="91" r="10" fill="none" stroke="#0078d4" stroke-width="1" opacity="0.4"/>

  <!-- ============================================================ -->
  <!-- CENTRE BOTTOM — PROCESS VALUE GAUGES                          -->
  <!-- ============================================================ -->
  <rect x="194" y="354" width="410" height="90" fill="#111827" rx="4" stroke="#1e3a5f" stroke-width="1"/>
  <text x="202" y="368" font-size="10" font-weight="700" fill="#60a5fa" letter-spacing="1">PROCESS VALUES</text>

  <!-- Force gauge -->
  <rect x="206" y="374" width="118" height="60" fill="#0d1117" rx="3" stroke="#1e3a5f" stroke-width="1"/>
  <text x="265" y="390" font-size="9" fill="#6b7a9a" text-anchor="middle">Force Y</text>
  <text x="265" y="415" font-size="20" font-weight="700" fill="#4ade80" text-anchor="middle">—</text>
  <text x="265" y="430" font-size="9" fill="#4b5680" text-anchor="middle">N  ·  rx.PVcurrentValueY</text>

  <!-- Displacement gauge -->
  <rect x="330" y="374" width="118" height="60" fill="#0d1117" rx="3" stroke="#1e3a5f" stroke-width="1"/>
  <text x="389" y="390" font-size="9" fill="#6b7a9a" text-anchor="middle">Displacement X</text>
  <text x="389" y="415" font-size="20" font-weight="700" fill="#38bdf8" text-anchor="middle">—</text>
  <text x="389" y="430" font-size="9" fill="#4b5680" text-anchor="middle">mm  ·  rx.PVcurrentValueX</text>

  <!-- Gradient display -->
  <rect x="454" y="374" width="140" height="60" fill="#0d1117" rx="3" stroke="#1e3a5f" stroke-width="1"/>
  <text x="524" y="390" font-size="9" fill="#6b7a9a" text-anchor="middle">Gradient</text>
  <text x="524" y="415" font-size="20" font-weight="700" fill="#a78bfa" text-anchor="middle">—</text>
  <text x="524" y="430" font-size="9" fill="#4b5680" text-anchor="middle">N/mm  ·  rx.PV_EO3_Gradient</text>

  <!-- ============================================================ -->
  <!-- RIGHT PANEL — CONTROLS                                        -->
  <!-- ============================================================ -->
  <rect x="611" y="58" width="280" height="386" fill="#111827" rx="4" stroke="#1e3a5f" stroke-width="1"/>
  <text x="751" y="74" font-size="10" font-weight="700" fill="#60a5fa" text-anchor="middle" letter-spacing="1">CONTROLS</text>
  <line x1="619" y1="78" x2="883" y2="78" stroke="#1e3a5f" stroke-width="1"/>

  <!-- RUN SEQUENCE button → move.x1 -->
  <rect x="622" y="88" width="124" height="40" rx="4" fill="#166534" stroke="#4ade80" stroke-width="1.5"/>
  <text x="684" y="103" font-size="11" font-weight="700" fill="#4ade80" text-anchor="middle">▶ RUN</text>
  <text x="684" y="119" font-size="8" fill="#4b5680" text-anchor="middle">move.x1</text>

  <!-- STOP button → move.x0 -->
  <rect x="752" y="88" width="124" height="40" rx="4" fill="#7f1d1d" stroke="#f87171" stroke-width="1.5"/>
  <text x="814" y="103" font-size="11" font-weight="700" fill="#f87171" text-anchor="middle">■ STOP</text>
  <text x="814" y="119" font-size="8" fill="#4b5680" text-anchor="middle">move.x0</text>

  <!-- HOME button → move.x3 -->
  <rect x="622" y="136" width="80" height="36" rx="4" fill="#1e3a5f" stroke="#60a5fa" stroke-width="1"/>
  <text x="662" y="149" font-size="10" font-weight="700" fill="#60a5fa" text-anchor="middle">⌂ HOME</text>
  <text x="662" y="165" font-size="8" fill="#4b5680" text-anchor="middle">move.x3</text>

  <!-- REFERENCE button → move.x4 -->
  <rect x="710" y="136" width="80" height="36" rx="4" fill="#1e3a5f" stroke="#60a5fa" stroke-width="1"/>
  <text x="750" y="149" font-size="10" font-weight="700" fill="#60a5fa" text-anchor="middle">◎ REF</text>
  <text x="750" y="165" font-size="8" fill="#4b5680" text-anchor="middle">move.x4</text>

  <!-- RESET button → move.x5 -->
  <rect x="798" y="136" width="78" height="36" rx="4" fill="#292524" stroke="#a8a29e" stroke-width="1"/>
  <text x="837" y="149" font-size="10" font-weight="700" fill="#a8a29e" text-anchor="middle">↺ RESET</text>
  <text x="837" y="165" font-size="8" fill="#4b5680" text-anchor="middle">move.x5</text>

  <!-- JOG Forward / Backward -->
  <text x="684" y="192" font-size="9" fill="#6b7a9a" text-anchor="middle">JOG CONTROLS</text>
  <rect x="622" y="196" width="120" height="36" rx="4" fill="#1c1f2e" stroke="#facc15" stroke-width="1"/>
  <text x="682" y="210" font-size="10" font-weight="700" fill="#facc15" text-anchor="middle">▶▶ JOG FWD</text>
  <text x="682" y="225" font-size="8" fill="#4b5680" text-anchor="middle">move.x8 (JogFwd)</text>

  <rect x="748" y="196" width="128" height="36" rx="4" fill="#1c1f2e" stroke="#facc15" stroke-width="1"/>
  <text x="812" y="210" font-size="10" font-weight="700" fill="#facc15" text-anchor="middle">◀◀ JOG BWD</text>
  <text x="812" y="225" font-size="8" fill="#4b5680" text-anchor="middle">move.x9 (JogNeq)</text>

  <!-- Separator -->
  <line x1="619" y1="240" x2="883" y2="240" stroke="#1e3a5f" stroke-width="1"/>
  <text x="751" y="254" font-size="9" fill="#6b7a9a" text-anchor="middle">SETPOINTS  (HMI → *Set fields)</text>

  <!-- Jog Speed -->
  <text x="628" y="272" font-size="9" fill="#94a3b8">Jog Speed [mm/s]</text>
  <rect x="622" y="276" width="116" height="24" rx="3" fill="#0d1117" stroke="#2d4070" stroke-width="1"/>
  <text x="680" y="292" font-size="12" fill="#38bdf8" text-anchor="middle">—</text>
  <text x="628" y="316" font-size="8" fill="#4b5680">serverJogSpeedSet</text>

  <!-- Max Force -->
  <text x="754" y="272" font-size="9" fill="#94a3b8">Max Force [N]</text>
  <rect x="748" y="276" width="128" height="24" rx="3" fill="#0d1117" stroke="#2d4070" stroke-width="1"/>
  <text x="812" y="292" font-size="12" fill="#38bdf8" text-anchor="middle">—</text>
  <text x="754" y="316" font-size="8" fill="#4b5680">serverJogMaxForceSet</text>

  <!-- Separator -->
  <line x1="619" y1="324" x2="883" y2="324" stroke="#1e3a5f" stroke-width="1"/>
  <text x="751" y="338" font-size="9" fill="#6b7a9a" text-anchor="middle">PROGRAM SELECTION</text>

  <!-- MP Selector → manualSelectMpNum -->
  <text x="628" y="354" font-size="9" fill="#94a3b8">MP No. (0–127)</text>
  <rect x="622" y="358" width="80" height="24" rx="3" fill="#0d1117" stroke="#2d4070" stroke-width="1"/>
  <text x="662" y="374" font-size="13" font-weight="700" fill="#a78bfa" text-anchor="middle">—</text>
  <text x="628" y="394" font-size="8" fill="#4b5680">manualSelectMpNum</text>

  <!-- Sequence Selector → selectSequenceSet -->
  <text x="714" y="354" font-size="9" fill="#94a3b8">Sequence (0–3)</text>
  <rect x="712" y="358" width="64" height="24" rx="3" fill="#0d1117" stroke="#2d4070" stroke-width="1"/>
  <text x="744" y="374" font-size="13" font-weight="700" fill="#a78bfa" text-anchor="middle">—</text>
  <text x="714" y="394" font-size="8" fill="#4b5680">selectSequenceSet</text>

  <!-- Page Selector → selectPageSet -->
  <text x="788" y="354" font-size="9" fill="#94a3b8">Page (0–7)</text>
  <rect x="786" y="358" width="90" height="24" rx="3" fill="#0d1117" stroke="#2d4070" stroke-width="1"/>
  <text x="831" y="374" font-size="13" font-weight="700" fill="#a78bfa" text-anchor="middle">—</text>
  <text x="788" y="394" font-size="8" fill="#4b5680">selectPageSet</text>

  <!-- ============================================================ -->
  <!-- BOTTOM STATUS BAR                                             -->
  <!-- ============================================================ -->
  <rect x="8" y="572" width="884" height="80" fill="#111827" rx="4" stroke="#1e3a5f" stroke-width="1"/>
  <text x="400" y="586" font-size="9" font-weight="700" fill="#60a5fa" text-anchor="middle" letter-spacing="1">SEQUENCE / PROGRAM STATUS</text>
  <line x1="16" y1="590" x2="876" y2="590" stroke="#1e3a5f" stroke-width="1"/>

  <!-- Current MP echo (receive.mpNum) -->
  <text x="60" y="606" font-size="9" fill="#6b7a9a" text-anchor="middle">Active MP</text>
  <rect x="20" y="610" width="80" height="24" rx="3" fill="#0d1117" stroke="#1e3a5f" stroke-width="1"/>
  <text x="60" y="626" font-size="13" font-weight="700" fill="#e2e8f0" text-anchor="middle">—</text>
  <text x="60" y="645" font-size="8" fill="#4b5680" text-anchor="middle">receive.mpNum</text>

  <!-- Sequence echo (receive.selectSequence — NOTE: read-only from FB) -->
  <text x="160" y="606" font-size="9" fill="#6b7a9a" text-anchor="middle">Active Seq</text>
  <rect x="120" y="610" width="80" height="24" rx="3" fill="#0d1117" stroke="#1e3a5f" stroke-width="1"/>
  <text x="160" y="626" font-size="13" font-weight="700" fill="#e2e8f0" text-anchor="middle">—</text>
  <text x="160" y="645" font-size="8" fill="#4b5680" text-anchor="middle">send.selectSeqeunce</text>

  <!-- Page echo -->
  <text x="260" y="606" font-size="9" fill="#6b7a9a" text-anchor="middle">Page</text>
  <rect x="220" y="610" width="80" height="24" rx="3" fill="#0d1117" stroke="#1e3a5f" stroke-width="1"/>
  <text x="260" y="626" font-size="13" font-weight="700" fill="#e2e8f0" text-anchor="middle">—</text>
  <text x="260" y="645" font-size="8" fill="#4b5680" text-anchor="middle">send.selectPage</text>

  <!-- Current Label (currentLabel Byte) -->
  <text x="370" y="606" font-size="9" fill="#6b7a9a" text-anchor="middle">Seq Label</text>
  <rect x="320" y="610" width="100" height="24" rx="3" fill="#0d1117" stroke="#1e3a5f" stroke-width="1"/>
  <text x="370" y="626" font-size="13" font-weight="700" fill="#facc15" text-anchor="middle">—</text>
  <text x="370" y="645" font-size="8" fill="#4b5680" text-anchor="middle">currentLabel (0–31)</text>

  <!-- Sequence End flag (sequenceEnd Bool) -->
  <circle cx="470" cy="622" r="12" fill="#374151" id="led_seqEndBottom"/>
  <text x="470" y="626" font-size="9" font-weight="700" fill="#e2e8f0" text-anchor="middle">END</text>
  <text x="470" y="645" font-size="8" fill="#4b5680" text-anchor="middle">sequenceEnd</text>

  <!-- Op mode area (opmodearea USInt) -->
  <rect x="500" y="610" width="100" height="24" rx="3" fill="#0d1117" stroke="#1e3a5f" stroke-width="1"/>
  <text x="550" y="626" font-size="11" fill="#60a5fa" text-anchor="middle">AUTOMATIC</text>
  <text x="550" y="645" font-size="8" fill="#4b5680" text-anchor="middle">opmodearea</text>

  <!-- State colour block -->
  <text x="660" y="606" font-size="9" fill="#6b7a9a" text-anchor="middle">stateColour</text>
  <rect x="610" y="610" width="100" height="24" rx="3" fill="#166534" id="stateColourBlock"/>
  <text x="660" y="626" font-size="11" font-weight="700" fill="#4ade80" text-anchor="middle" id="stateColourText">1 — AUTO</text>
  <text x="660" y="645" font-size="8" fill="#4b5680" text-anchor="middle">1=auto 2=man 5=alm 8=unsafe</text>

  <!-- HMI Control No -->
  <text x="790" y="606" font-size="9" fill="#6b7a9a" text-anchor="middle">HMI Ctrl No</text>
  <rect x="730" y="610" width="120" height="24" rx="3" fill="#0d1117" stroke="#1e3a5f" stroke-width="1"/>
  <text x="790" y="626" font-size="11" fill="#94a3b8" text-anchor="middle">—</text>
  <text x="790" y="645" font-size="8" fill="#4b5680" text-anchor="middle">hmiControlNo</text>

  <!-- ============================================================ -->
  <!-- SEND STRUCT FEEDBACK ROW (between curve and bottom bar)       -->
  <!-- ============================================================ -->
  <rect x="194" y="450" width="410" height="114" fill="#111827" rx="4" stroke="#2d4070" stroke-width="1"/>
  <text x="399" y="464" font-size="9" font-weight="700" fill="#60a5fa" text-anchor="middle" letter-spacing="1">FIELDBUS ECHO (send struct — READ ONLY — FB→HMI)</text>
  <line x1="202" y1="468" x2="596" y2="468" stroke="#1e3a5f" stroke-width="1"/>

  <!-- send.control bits preview (feedback, NOT commands) -->
  <text x="202" y="482" font-size="8" fill="#4b5680">send.control [feedback]:</text>
  <text x="202" y="496" font-size="9" fill="#94a3b8">x0=Auto  x1=MP-Select  x2=Pg-Sel  x3=Run-Seq  x4=Seq-End</text>
  <text x="202" y="510" font-size="9" fill="#94a3b8">x5=Home  x6=Ref  x7=Stop  x8=JogFwd  x9=JogBwd</text>

  <!-- send byte fields (echoes of statDataExchangeSend) -->
  <text x="202" y="526" font-size="8" fill="#4b5680">Echo bytes:</text>
  <text x="202" y="540" font-size="9" fill="#94a3b8">send.mpNum · send.selectSeqeunce · send.selectPage · send.serverJogSpeed · send.serverJogMaxForce</text>
  <text x="202" y="554" font-size="8" fill="#7f1d1d">⚠ Do NOT write to send.* — it is overwritten every scan by FB from statDataExchangeSend</text>

  <!-- ============================================================ -->
  <!-- BOTTOM EDGE — version / binding hint                          -->
  <!-- ============================================================ -->
  <text x="450" y="656" font-size="8" fill="#374151" text-anchor="middle">
    LSicar_KistlerPress FB v0.0.1  ·  LDrive_typeKistlerHmi UDT  ·  tecUnitNumber index  ·  WinCC Unified Library Type
  </text>

</svg>
