<svg xmlns="http://www.w3.org/2000/svg" viewBox="0 0 1800 900" role="img" aria-labelledby="title desc">
  <title id="title">TiaOpen MCP banner</title>
  <desc id="desc">Banner for the TiaOpen MCP repository showing the TiaOpen MCP name connected by a cable.</desc>
  <rect width="1800" height="900" fill="#ffffff"/>

  <g fill="none" stroke="#8a8f97" stroke-width="22" stroke-linecap="round" stroke-linejoin="round">
    <path d="M185 170 L185 600 C185 680 240 730 320 730 L730 730"/>
    <path d="M1085 730 L1485 730 C1560 730 1615 675 1615 600 L1615 215"/>
  </g>
  <g fill="none" stroke="#5f646b" stroke-width="10">
    <path d="M185 170 L185 600 C185 680 240 730 320 730 L730 730" stroke-dasharray="8 14"/>
    <path d="M1085 730 L1485 730 C1560 730 1615 675 1615 600 L1615 215" stroke-dasharray="8 14"/>
  </g>

  <g transform="translate(725 700)">
    <rect x="0" y="0" width="80" height="60" rx="8" fill="#595f66"/>
    <rect x="80" y="0" width="80" height="60" rx="8" fill="#8d939a"/>
    <rect x="58" y="8" width="18" height="44" fill="#2b2f33"/>
    <rect x="84" y="8" width="18" height="44" fill="#2b2f33"/>
    <rect x="110" y="8" width="18" height="44" fill="#2b2f33"/>
  </g>
  <g transform="translate(995 700)">
    <rect x="0" y="0" width="80" height="60" rx="8" fill="#8d939a"/>
    <rect x="80" y="0" width="80" height="60" rx="8" fill="#595f66"/>
    <rect x="58" y="8" width="18" height="44" fill="#2b2f33"/>
    <rect x="84" y="8" width="18" height="44" fill="#2b2f33"/>
    <rect x="110" y="8" width="18" height="44" fill="#2b2f33"/>
  </g>

  <g fill="#8bd3dd" opacity="0.95">
    <rect x="890" y="722" width="10" height="10" rx="2"/>
    <rect x="910" y="710" width="10" height="10" rx="2"/>
    <rect x="930" y="726" width="10" height="10" rx="2"/>
    <rect x="950" y="714" width="10" height="10" rx="2"/>
    <rect x="970" y="722" width="10" height="10" rx="2"/>
  </g>
  <g fill="#a7d676" opacity="0.95">
    <rect x="900" y="742" width="10" height="10" rx="2"/>
    <rect x="920" y="734" width="10" height="10" rx="2"/>
    <rect x="940" y="746" width="10" height="10" rx="2"/>
    <rect x="960" y="734" width="10" height="10" rx="2"/>
  </g>

  <g fill="#000000" font-family="Segoe UI, Arial, sans-serif" font-weight="700">
    <text x="120" y="405" font-size="210">TiaOpen</text>
    <text x="1180" y="405" font-size="210">MCP</text>
    <text x="1370" y="505" font-size="78" font-weight="600">(unofficial)</text>
  </g>

  <g transform="translate(118 140)">
    <rect x="0" y="0" width="62" height="80" fill="#000"/>
    <rect x="62" y="26" width="58" height="28" fill="#000"/>
    <rect x="36" y="220" width="30" height="380" fill="#2c3136"/>
    <circle cx="40" cy="-60" r="18" fill="#6f6f73"/>
    <rect x="24" y="-32" width="32" height="52" rx="12" fill="#6f6f73"/>
    <rect x="20" y="20" width="40" height="70" rx="14" fill="#6f6f73"/>
    <rect x="6" y="88" width="16" height="62" rx="8" fill="#6f6f73" transform="rotate(14 14 119)"/>
    <rect x="58" y="88" width="16" height="62" rx="8" fill="#6f6f73" transform="rotate(-18 66 119)"/>
    <rect x="22" y="144" width="16" height="72" rx="8" fill="#6f6f73" transform="rotate(8 30 180)"/>
    <rect x="44" y="144" width="16" height="72" rx="8" fill="#6f6f73" transform="rotate(-8 52 180)"/>
  </g>

  <g transform="translate(430 162)">
    <circle cx="0" cy="0" r="18" fill="#1595d3"/>
    <rect x="-16" y="22" width="32" height="50" rx="12" fill="#1595d3"/>
    <rect x="-22" y="70" width="44" height="72" rx="14" fill="#1595d3"/>
    <rect x="-36" y="84" width="14" height="54" rx="7" fill="#1595d3"/>
    <rect x="22" y="84" width="14" height="54" rx="7" fill="#1595d3"/>
    <rect x="-18" y="142" width="14" height="64" rx="7" fill="#1595d3"/>
    <rect x="4" y="142" width="14" height="64" rx="7" fill="#1595d3"/>
    <circle cx="-6" cy="-4" r="3" fill="#fff"/>
    <circle cx="8" cy="-4" r="3" fill="#fff"/>
  </g>

  <g transform="translate(1335 108)">
    <circle cx="0" cy="0" r="18" fill="#d94343"/>
    <rect x="-16" y="22" width="32" height="50" rx="12" fill="#d94343"/>
    <rect x="-22" y="70" width="44" height="72" rx="14" fill="#d94343"/>
    <rect x="-36" y="84" width="14" height="54" rx="7" fill="#d94343"/>
    <rect x="22" y="84" width="14" height="54" rx="7" fill="#d94343"/>
    <rect x="-18" y="142" width="14" height="64" rx="7" fill="#d94343"/>
    <rect x="4" y="142" width="14" height="64" rx="7" fill="#d94343"/>
    <circle cx="-6" cy="-4" r="3" fill="#fff"/>
    <circle cx="8" cy="-4" r="3" fill="#fff"/>
  </g>

  <g transform="translate(1610 160)">
    <circle cx="0" cy="0" r="18" fill="#1595d3"/>
    <rect x="-16" y="22" width="32" height="50" rx="12" fill="#1595d3"/>
    <rect x="-22" y="70" width="44" height="72" rx="14" fill="#1595d3"/>
    <rect x="-36" y="84" width="14" height="54" rx="7" fill="#1595d3"/>
    <rect x="22" y="84" width="14" height="54" rx="7" fill="#1595d3"/>
    <rect x="-18" y="142" width="14" height="64" rx="7" fill="#1595d3" transform="rotate(18 -11 174)"/>
    <rect x="4" y="142" width="14" height="64" rx="7" fill="#1595d3" transform="rotate(-18 11 174)"/>
    <circle cx="-6" cy="-4" r="3" fill="#fff"/>
    <circle cx="8" cy="-4" r="3" fill="#fff"/>
  </g>

  <g font-family="Segoe UI, Arial, sans-serif" fill="#1e2430">
    <rect x="85" y="790" width="105" height="105" fill="#4c596d"/>
    <text x="96" y="836" fill="#ffffff" font-size="31" font-weight="700">TIA</text>
    <text x="96" y="872" fill="#89c5ff" font-size="31" font-weight="700">PORTAL</text>
    <rect x="214" y="790" width="3" height="105" fill="#6a7078"/>
    <text x="256" y="838" font-size="31" font-weight="700">Siemens</text>
    <text x="256" y="875" font-size="31" font-weight="700">TIA Portal Openness</text>
    <text x="256" y="912" font-size="31">in your AI workflows.</text>
  </g>
</svg>